<svg width="76" height="6" viewBox="0 0 76 6" fill="none" xmlns="http://www.w3.org/2000/svg">
<path fill-rule="evenodd" clip-rule="evenodd" d="M5.9375 5.49999L-5.19072e-07 2.99999L5.9375 0.500001L5.9375 2.56698L8.63636 2.56698L8.63636 3.43301L5.9375 3.43301L5.9375 5.49999ZM15.5455 3.43301L12.0909 3.43301L12.0909 2.56698L15.5455 2.56699L15.5455 3.43301ZM22.4545 3.43301L19 3.43301L19 2.56699L22.4545 2.56699L22.4545 3.43301ZM29.3636 3.43301L25.9091 3.43301L25.9091 2.56699L29.3636 2.56699L29.3636 3.43301ZM36.2727 3.43301L32.8182 3.43301L32.8182 2.56699L36.2727 2.56699L36.2727 3.43301ZM43.1818 3.43301L39.7273 3.43301L39.7273 2.56699L43.1818 2.56699L43.1818 3.43301ZM50.0909 3.43301L46.6364 3.43301L46.6364 2.56699L50.0909 2.56699L50.0909 3.43301ZM57 3.43301L53.5455 3.43301L53.5455 2.56699L57 2.56699L57 3.43301ZM63.9091 3.43302L60.4546 3.43302L60.4546 2.56699L63.9091 2.56699L63.9091 3.43302ZM70.8182 3.43302L67.3637 3.43302L67.3637 2.56699L70.8182 2.56699L70.8182 3.43302ZM76 3.43302L74.2728 3.43302L74.2728 2.56699L76 2.56699L76 3.43302Z" fill="url(#paint0_linear_48_238)" fill-opacity="0.7"/>
<defs>
<linearGradient id="paint0_linear_48_238" x1="8.36" y1="0.97066" x2="8.59902" y2="7.84391" gradientUnits="userSpaceOnUse">
<stop stop-color="#15BFFD"/>
<stop offset="1" stop-color="#9C37FD"/>
</linearGradient>
</defs>
</svg>
